<?xml version="1.0" encoding="utf-8"?>
<?xml-stylesheet type="text/xsl" href="rss1.xsl"?>
<rss version="2.0" xmlns:atom="http://www.w3.org/2005/Atom" xmlns:content="http://purl.org/rss/1.0/modules/content/" xmlns:dc="http://purl.org/dc/elements/1.1/" xmlns:media="http://search.yahoo.com/mrss/">
<channel>
 <title>Getty</title>
 <link>http://www.gettyimg.com/</link>
 <atom:link href="http://www.gettyimg.com/" rel="self" type="application/rss+xml" />

 
                <item>
                <title><![CDATA[【HD Live Performances】WEB-RiP - Taylor Swift - Surprise Announcement (Taylor’s Version) [2023 AM 1080p WEB-DL AAC2.0]]]></title>
                <link><![CDATA[https://sharemania.us/threads/taylor-swift-surprise-announcement-taylor%E2%80%99s-version-2023-am-1080p-web-dl-aac2-0.222088/]]></link>
                <description><![CDATA[<article>
<blockquote class="messageText SelectQuoteContainer ugc baseHtml">
Official shot of the Speak Now (Taylor's Version) annoucement from The Eras Tour.<br>
<img src="https://i.imgur.com/HZYVySJ.jpg" class="bbCodeImage LbImage" alt="[​IMG]" data-url="https://i.imgur.com/HZYVySJ.jpg" style=""> <br>
<br>
<div class="bbCodeBlock bbCodeVfcHH HiddenContent">
<div class="attribution type">Hidden Content:</div>
<blockquote>You must reply before you can see the hidden data contained here.</blockquote>
</div>
<div class="messageTextEndMarker">&nbsp;</div>
</blockquote>
</article>]]></description>
                <author><![CDATA[AwesomeMe]]></author>
                </item>

                
                <item>
                <title><![CDATA[【MASTER &amp; MASTER RIP】MASTER - Sebastian Yatra, John Legend - Tacones Rojos [MasterRip Clean AVC 4K] - 2022]]></title>
                <link><![CDATA[https://sharemania.us/threads/sebastian-yatra-john-legend-tacones-rojos-masterrip-clean-avc-4k-2022.222085/]]></link>
                <description><![CDATA[<article>
<blockquote class="messageText SelectQuoteContainer ugc baseHtml">
<div style="text-align: center"><img src="https://i.imgur.com/GliYHiz.png" class="bbCodeImage LbImage" alt="[​IMG]" data-url="https://i.imgur.com/GliYHiz.png" style=""><br>
<br>
<img src="https://i.imgur.com/k4vdcEH.png" class="bbCodeImage LbImage" alt="[​IMG]" data-url="https://i.imgur.com/k4vdcEH.png" style="">​</div><br>
<div class="ToggleTriggerAnchor bbCodeSpoilerContainer">
<button type="button" class="button bbCodeSpoilerButton ToggleTrigger Tooltip JsOnly" data-target="> .SpoilerTarget"><span>Spoiler: <span class="SpoilerTitle">MediaInfo</span></span></button>
<div class="SpoilerTarget bbCodeSpoilerText">
<div class="bbCodeBlock bbCodeCode">
<div class="type">Code:</div>
<pre>General
Complete name                  : Sebastian Yatra, John Legend - Tacones Rojos [MasterRip Clean AVC 4K] - 2022.mp4
Format                         : MPEG-4
Format profile                 : Base Media / Version 2
Codec ID                       : mp42 (mp42/mp41)
File size                      : 513 MiB
Duration                       : 3 min 12 s
Overall bit rate mode          : Variable
Overall bit rate               : 22.3 Mb/s
Frame rate                     : 23.976 FPS
Encoded date                   : 2022-03-22 14:36:46 UTC
Tagged date                    : 2022-03-22 14:46:06 UTC
TIM                            : 00:00:00:00
TSC                            : 24000
TSZ                            : 1001

Video
ID                             : 1
Format                         : AVC
Format/Info                    : Advanced Video Codec
Format profile                 : Main@L5.1
Format settings                : CABAC / 4 Ref Frames
Format settings, CABAC         : Yes
Format settings, Reference fra : 4 frames
Codec ID                       : avc1
Codec ID/Info                  : Advanced Video Coding
Duration                       : 3 min 12 s
Bit rate                       : 22.0 Mb/s
Width                          : 3 840 pixels
Height                         : 2 160 pixels
Display aspect ratio           : 16:9
Frame rate mode                : Constant
Frame rate                     : 23.976 (24000/1001) FPS
Color space                    : YUV
Chroma subsampling             : 4:2:0
Bit depth                      : 8 bits
Scan type                      : Progressive
Bits/(Pixel*Frame)             : 0.111
Stream size                    : 505 MiB (99%)
Language                       : English
Encoded date                   : 2022-03-22 14:36:47 UTC
Tagged date                    : 2022-03-22 14:36:47 UTC
Color range                    : Limited
Color primaries                : BT.709
Transfer characteristics       : BT.709
Matrix coefficients            : BT.709
Codec configuration box        : avcC

Audio
ID                             : 2
Format                         : AAC LC
Format/Info                    : Advanced Audio Codec Low Complexity
Codec ID                       : mp4a-40-2
Duration                       : 3 min 12 s
Source duration                : 3 min 12 s
Bit rate mode                  : Variable
Bit rate                       : 317 kb/s
Maximum bit rate               : 419 kb/s
Channel(s)                     : 2 channels
Channel layout                 : L R
Sampling rate                  : 48.0 kHz
Frame rate                     : 46.875 FPS (1024 SPF)
Compression mode               : Lossy
Stream size                    : 7.28 MiB (1%)
Source stream size             : 7.29 MiB (1%)
Language                       : English
Encoded date                   : 2022-03-22 14:36:49 UTC
Tagged date                    : 2022-03-22 14:36:49 UTC
</pre>
</div></div>
</div><br>
<div style="text-align: center"><b>DOWNLOAD LINK</b><br>
<img src="https://i.imgur.com/yRbU0vs.png" class="bbCodeImage LbImage" alt="[​IMG]" data-url="https://i.imgur.com/yRbU0vs.png" style=""><br>
<div class="bbCodeBlock bbCodeVfcHH HiddenContent">
<div class="attribution type">Hidden Content:</div>
<blockquote>You must either reply or click 'Like' to see the hidden information contained here.</blockquote>
</div></div>
<div class="messageTextEndMarker">&nbsp;</div>
</blockquote>
</article>]]></description>
                <author><![CDATA[ElFunadisimo]]></author>
                </item>

                
                <item>
                <title><![CDATA[【UPSCALED】Alan Walker, K-391 &amp; Boy In Space - Paradise [4K AI Upscale HEVC 10-bit / PCM 24-bit]]]></title>
                <link><![CDATA[https://sharemania.us/threads/alan-walker-k-391-boy-in-space-paradise-4k-ai-upscale-hevc-10-bit-pcm-24-bit.222086/]]></link>
                <description><![CDATA[<article>
<blockquote class="messageText SelectQuoteContainer ugc baseHtml">
<b><b><img src="https://images2.imgbox.com/3f/ad/vu4ZsDoa_o.jpg" class="bbCodeImage LbImage" alt="[​IMG]" data-url="https://images2.imgbox.com/3f/ad/vu4ZsDoa_o.jpg" style=""> <br>
<br>
Genre:</b> <span style="color: #0059b3">Electronic</span><br>
<b>Style:</b> <span style="color: #0059b3">Electro House, Dance-pop</span><br>
Year: <span style="color: #0059b3">2021</span><br>
Video Source: <span style="color: #0059b3">Vimeo, 1080p</span><br>
Audio Source: <span style="color: #0059b3">Qobuz Hi-Res 24-bit</span></b><br>
<br>
"<b>Paradise</b>" is a song by Alan Walker, K-391 (the artistic name of Kenneth Nilsen) and Boy in Space (the artistic name of Robin Lundbäck). It was a non-album release through MER and Sony Music in 2021 as a collaboration with mobile game <i>PUBG Mobile</i> (<i>PlayerUnknown's Battlegrounds</i>). "Paradise" is used in the game's lobby and vehicle and also features in a release of unique game items of <i>PUBG</i>, a battle royale game on Android and iOS.<br>
The song comes exactly two years after <i>PUBG Mobile</i> used the track "Live Fast (PUBGM)" by Alan Walker and rapper A$AP Rocky as an official anthem of a commercial release of theirs.<br>
<br>
The track is accompanied by an official video and features as the next chapter in the "World of Walker", the story that has been ongoing in previous Alan Walker videos, particularly the music video "Faded". Despite the music video heavily resembling that of "Faded"'s, it was confirmed that it does not serve as its sequel, but rather serves as an expansion behind the 2015 music video's story, meaning that both videos occur at the same time.<br>
<br>
"Paradise" has reached 3.3M total views and 147.9K likes on YouTube (June 2023).<br>
<br>
<b>Release Info</b><br>
The video track is upscaled to 4K with Topaz Video AI and encoded to HEVC 10-bit.<br>
The PCM track is lossless (Qobuz, HiRes 24-bit), synced with Adobe Audition.<br>
The timed lyrics are synced and edited to match the music video.<br>
Enable the subtitles to see the lyrics.<br>
<br>
<div class="ToggleTriggerAnchor bbCodeSpoilerContainer">
<button type="button" class="button bbCodeSpoilerButton ToggleTrigger Tooltip JsOnly" data-target="> .SpoilerTarget"><span>Spoiler: <span class="SpoilerTitle">Media Info</span></span></button>
<div class="SpoilerTarget bbCodeSpoilerText">
<div class="bbCodeBlock bbCodeCode">
<div class="type">Code:</div>
<pre>Algemeen
Unique ID                                : 303230039611712531818394569647495133639 (0xE41FFB389CDF37DBA4AA5A5BE18139C7)
Volledige naam                           : Alan Walker\Alan Walker, K-391 &amp; Boy In Space - Paradise.mkv
Formaat                                  : Matroska
Formaatversie                            : Version 4 / Version 2
Bestandsgrootte                          : 505 MiB
Duur                                     : 3 min 23s
Totale bitrate                           : 20,9 Mb/s
Framerate                                : 25,000 FPS
Datum codering                           : 2023-06-05 12:47:57 UTC
Gebruikt programma                       : mkvmerge v76.0 ('Celebration') 64-bit
Gebruikte encoderbibliotheek             : libebml v1.4.4 + libmatroska v1.7.1

Video
ID                                       : 1
Formaat                                  : HEVC
Formaat/Info                             : High Efficiency Video Coding
Formaatprofiel                           : Main 10@L5@Main
Codec-ID                                 : V_MPEGH/ISO/HEVC
Duur                                     : 3 min 23s
Bitrate                                  : 18,4 Mb/s
Breedte                                  : 3 840 pixels
Hoogte                                   : 2 160 pixels
Beeldverhouding                          : 16:9
Frameratemodus                           : Constant
Framerate                                : 25,000 FPS
Color space                              : YUV
Chroma subsampling                       : 4:2:0
Bit depth                                : 10 bits
Bits/(Pixel*Frame)                       : 0.089
Stroomgrootte                            : 446 MiB (88%)
Taal                                     : Engels
Default                                  : Ja
Forced                                   : Nee
Color range                              : Limited

Audio #1
ID                                       : 2
Formaat                                  : PCM
Formaatinstellingen                      : Little / Signed
Codec-ID                                 : A_PCM/INT/LIT
Duur                                     : 3 min 23s
Bitrate-modus                            : Constant
Bitrate                                  : 2 117 kb/s
Kanaal(en)                               : 2 kanalen
Samplerate                               : 44,1 kHz
Framerate                                : 25,000 FPS (1764 SPF)
Bit depth                                : 24 bits
Stroomgrootte                            : 51,2 MiB (10%)
Titel                                    : Lossless 24-bit
Taal                                     : Engels
Default                                  : Ja
Forced                                   : Nee

Audio #2
ID                                       : 3
Formaat                                  : AAC LC
Formaat/Info                             : Advanced Audio Codec Low Complexity
Codec-ID                                 : A_AAC-2
Duur                                     : 3 min 23s
Bitrate                                  : 317 kb/s
Kanaal(en)                               : 2 kanalen
Channel layout                           : L R
Samplerate                               : 48,0 kHz
Framerate                                : 46,875 FPS (1024 SPF)
Compression mode                         : Lossy
Stroomgrootte                            : 7,68 MiB (2%)
Taal                                     : Engels
Default                                  : Nee
Forced                                   : Nee

Tekst
ID                                       : 4
Formaat                                  : UTF-8
Codec-ID                                 : S_TEXT/UTF8
Codec-ID/Info                            : UTF-8 Plain Text
Duur                                     : 3 min 2s
Bitrate                                  : 57 b/s
Framerate                                : 0,110 FPS
Count of elements                        : 20
Stroomgrootte                            : 1,27 KiB (0%)
Titel                                    : Lyrics
Taal                                     : Engels
Default                                  : Nee
Forced                                   : Nee
</pre>
</div></div>
</div><br>
<div class="bbCodeBlock bbCodeVfcHH HiddenContent">
<div class="attribution type">Hidden Content:</div>
<blockquote>You must reply before you can see the hidden data contained here.</blockquote>
</div>
<div class="messageTextEndMarker">&nbsp;</div>
</blockquote>
</article>]]></description>
                <author><![CDATA[ADHDerby]]></author>
                </item>

                
                <item>
                <title><![CDATA[【Requests】[REQ AUD] - Halsey, SUGA - Lilith (Diablo IV Anthem) (Dolby Atmos)]]></title>
                <link><![CDATA[https://sharemania.us/threads/halsey-suga-lilith-diablo-iv-anthem-dolby-atmos.222087/]]></link>
                <description><![CDATA[<article>
<blockquote class="messageText SelectQuoteContainer ugc baseHtml">
Hi! Anyone have this songs dolby atmos version? thank you!
<div class="messageTextEndMarker">&nbsp;</div>
</blockquote>
</article>]]></description>
                <author><![CDATA[thekingdom1]]></author>
                </item>

                
                <item>
                <title><![CDATA[【MASTER &amp; MASTER RIP】MASTER - Redfoo - New Thang [MasterRip Clean AVC 1080p] - 2014]]></title>
                <link><![CDATA[https://sharemania.us/threads/redfoo-new-thang-masterrip-clean-avc-1080p-2014.222084/]]></link>
                <description><![CDATA[<article>
<blockquote class="messageText SelectQuoteContainer ugc baseHtml">
<div style="text-align: center"><img src="https://i.imgur.com/4VxSGSK.png" class="bbCodeImage LbImage" alt="[​IMG]" data-url="https://i.imgur.com/4VxSGSK.png" style=""><br>
<br>
<img src="https://i.imgur.com/P1DzdN8.png" class="bbCodeImage LbImage" alt="[​IMG]" data-url="https://i.imgur.com/P1DzdN8.png" style="">​</div><br>
<div class="ToggleTriggerAnchor bbCodeSpoilerContainer">
<button type="button" class="button bbCodeSpoilerButton ToggleTrigger Tooltip JsOnly" data-target="> .SpoilerTarget"><span>Spoiler: <span class="SpoilerTitle">MediaInfo</span></span></button>
<div class="SpoilerTarget bbCodeSpoilerText">
<div class="bbCodeBlock bbCodeCode">
<div class="type">Code:</div>
<pre>General
Complete name                  : Redfoo - New Thang [MasterRip Clean AVC 1080p] - 2014.mov
Format                         : MPEG-4
Format profile                 : QuickTime
Codec ID                       : qt   2005.03 (qt  )
File size                      : 973 MiB
Duration                       : 3 min 51 s
Overall bit rate               : 35.2 Mb/s
Frame rate                     : 23.976 FPS
Encoded date                   : 2014-08-28 19:08:25 UTC
Tagged date                    : 2014-08-28 19:08:53 UTC
Writing library                : Apple QuickTime
Media/UUID                     : D97337BA-45E1-4229-94C7-506194CD7E5D
Media/History/UUID             : DA22D72A-EAB4-4795-B93E-D2D7DABF2ACF

Video
ID                             : 1
Format                         : AVC
Format/Info                    : Advanced Video Codec
Format profile                 : Main@L4.1
Format settings                : 2 Ref Frames
Format settings, CABAC         : No
Format settings, Reference fra : 2 frames
Codec ID                       : avc1
Codec ID/Info                  : Advanced Video Coding
Duration                       : 3 min 51 s
Bit rate                       : 34.9 Mb/s
Width                          : 1 920 pixels
Clean aperture width           : 1 888 pixels
Height                         : 1 080 pixels
Clean aperture height          : 1 062 pixels
Display aspect ratio           : 16:9
Frame rate mode                : Constant
Frame rate                     : 23.976 (23976/1000) FPS
Color space                    : YUV
Chroma subsampling             : 4:2:0
Bit depth                      : 8 bits
Scan type                      : Progressive
Bits/(Pixel*Frame)             : 0.702
Stream size                    : 964 MiB (99%)
Language                       : English
Encoded date                   : 2014-08-28 19:08:25 UTC
Tagged date                    : 2014-08-28 19:08:53 UTC
Color range                    : Limited
Color primaries                : BT.709
Transfer characteristics       : BT.709
Matrix coefficients            : BT.709
Codec configuration box        : avcC

Audio
ID                             : 2
Format                         : AAC LC
Format/Info                    : Advanced Audio Codec Low Complexity
Codec ID                       : mp4a-40-2
Duration                       : 3 min 51 s
Source duration                : 3 min 51 s
Bit rate mode                  : Constant
Bit rate                       : 320 kb/s
Channel(s)                     : 2 channels
Channel layout                 : L R
Sampling rate                  : 48.0 kHz
Frame rate                     : 46.875 FPS (1024 SPF)
Compression mode               : Lossy
Stream size                    : 8.73 MiB (1%)
Source stream size             : 8.73 MiB (1%)
Language                       : English
Encoded date                   : 2014-08-28 19:08:25 UTC
Tagged date                    : 2014-08-28 19:08:53 UTC

Other
ID                             : 3
Type                           : Time code
Format                         : QuickTime TC
Duration                       : 3 min 51 s
Frame rate                     : 23.976 (23976/1000) FPS
Time code of first frame       : 01:00:12:08
Time code of last frame        : 01:04:03:14
Time code, stripped            : Yes
Language                       : English
Encoded date                   : 2014-08-28 19:08:25 UTC
Tagged date                    : 2014-08-28 19:08:53 UTC
</pre>
</div></div>
</div><br>
<div style="text-align: center"><b>DOWNLOAD LINK</b><br>
<img src="https://i.imgur.com/yRbU0vs.png" class="bbCodeImage LbImage" alt="[​IMG]" data-url="https://i.imgur.com/yRbU0vs.png" style=""><br>
<div class="bbCodeBlock bbCodeVfcHH HiddenContent">
<div class="attribution type">Hidden Content:</div>
<blockquote>You must either reply or click 'Like' to see the hidden information contained here.</blockquote>
</div></div>
<div class="messageTextEndMarker">&nbsp;</div>
</blockquote>
</article>]]></description>
                <author><![CDATA[ElFunadisimo]]></author>
                </item>

                </channel></rss>